<?xml version="1.0" encoding="UTF-8" standalone="no"?>
<svg width="514px" height="421px" viewBox="0 0 514 421" version="1.1" xmlns="http://www.w3.org/2000/svg" xmlns:xlink="http://www.w3.org/1999/xlink" xmlns:sketch="http://www.bohemiancoding.com/sketch/ns">
    <!-- Generator: Sketch 3.3.3 (12072) - http://www.bohemiancoding.com/sketch -->
    <title>rubytaiwan</title>
    <desc>Created with Sketch.</desc>
    <defs>
        <linearGradient x1="16.9838226%" y1="50%" x2="62.3877412%" y2="76.0096312%" id="linearGradient-1">
            <stop stop-color="#9C0606" offset="0%"></stop>
            <stop stop-color="#AF0505" offset="31.3383018%"></stop>
            <stop stop-color="#D80202" offset="64.6518727%"></stop>
            <stop stop-color="#FF0000" offset="100%"></stop>
            <stop stop-color="#FF0000" offset="100%"></stop>
        </linearGradient>
        <linearGradient x1="38.7061097%" y1="50%" x2="107.318168%" y2="49.6860445%" id="linearGradient-2">
            <stop stop-color="#9C0606" offset="0%"></stop>
            <stop stop-color="#AF0505" offset="31.3383018%"></stop>
            <stop stop-color="#D80202" offset="64.6518727%"></stop>
            <stop stop-color="#FF0000" offset="100%"></stop>
            <stop stop-color="#FF0000" offset="100%"></stop>
        </linearGradient>
        <linearGradient x1="62.7294242%" y1="100%" x2="62.7314392%" y2="0%" id="linearGradient-3">
            <stop stop-color="#FFFFFF" stop-opacity="0.298039" offset="0%"></stop>
            <stop stop-color="#FFFFFF" stop-opacity="0.435294" offset="28%"></stop>
            <stop stop-color="#FFFFFF" stop-opacity="0.498039" offset="50%"></stop>
            <stop stop-color="#FFFFFF" stop-opacity="0.498039" offset="50%"></stop>
            <stop stop-color="#FFFFFF" stop-opacity="0.74902" offset="100%"></stop>
        </linearGradient>
    </defs>
    <g id="Page-1" stroke="none" stroke-width="1" fill="none" fill-rule="evenodd" sketch:type="MSPage">
        <g id="rubytaiwan" sketch:type="MSLayerGroup" transform="translate(1.000000, 1.000000)">
            <path d="M97.9920449,16.2184965 C229.652311,-4.79641692 291.749974,-5.26749358 415.612729,16.8547559 L512,150.257141 L258.489801,417.383099 L0.352260093,150.558956 L97.9920449,16.2184965 L97.9920449,16.2184965 Z" id="Background" fill="#FF0000" sketch:type="MSShapeGroup"></path>
            <path d="M512,149.888029 L384.088065,180.618133 L256.17613,418.055046 L512,149.888029 L512,149.888029 Z" id="Shape" stroke="#FF0000" stroke-linecap="round" stroke-linejoin="round" fill="url(#linearGradient-1)" sketch:type="MSShapeGroup"></path>
            <path d="M384.088065,180.618133 L256.17613,418.055046 L256.17613,204.948937 L384.088065,180.618133 Z" id="Shape" stroke="#FF0000" stroke-linecap="round" stroke-linejoin="round" fill="url(#linearGradient-1)" sketch:type="MSShapeGroup"></path>
            <path d="M256.17613,418.055046 L256.17613,204.948937 L122.124422,177.726416 L256.17613,418.055046 L256.17613,418.055046 Z" id="Shape" stroke="#FF0000" stroke-linecap="round" stroke-linejoin="round" fill="url(#linearGradient-1)" sketch:type="MSShapeGroup"></path>
            <path d="M122.124422,177.726416 L256.17613,418.055046 L0.352260093,149.888029 L122.124422,177.726416 Z" id="Shape" stroke="#FF0000" stroke-linecap="round" stroke-linejoin="round" fill="url(#linearGradient-1)" sketch:type="MSShapeGroup"></path>
            <path d="M384.088065,180.618133 L414.786929,16.3143433 L512,149.888029 L384.088065,180.618133 L384.088065,180.618133 Z" id="Shape" stroke="#FF0000" stroke-linecap="round" stroke-linejoin="round" fill="url(#linearGradient-1)" sketch:type="MSShapeGroup"></path>
            <path d="M384.088065,180.618133 L414.786929,16.3143433 L303.247722,56.0805549 L384.088065,180.618133 L384.088065,180.618133 Z" id="Shape" stroke="#FF0000" stroke-linecap="round" stroke-linejoin="round" fill="url(#linearGradient-1)" sketch:type="MSShapeGroup"></path>
            <path d="M384.088065,180.618133 L303.247722,56.0805549 L256.17613,204.948937 L384.088065,180.618133 L384.088065,180.618133 Z" id="Shape" stroke="#FF0000" stroke-linecap="round" stroke-linejoin="round" fill="url(#linearGradient-1)" sketch:type="MSShapeGroup"></path>
            <path d="M303.247722,56.0805549 L209.104538,56.0805549 L256.17613,204.948937 L303.247722,56.0805549 L303.247722,56.0805549 Z" id="Shape" stroke="#FF0000" stroke-linecap="round" stroke-linejoin="round" fill="url(#linearGradient-1)" sketch:type="MSShapeGroup"></path>
            <path d="M209.104538,56.0805549 L122.124422,177.726416 L256.17613,204.948937 L209.104538,56.0805549 L209.104538,56.0805549 Z" id="Shape" stroke="#FF0000" stroke-linecap="round" stroke-linejoin="round" fill="url(#linearGradient-1)" sketch:type="MSShapeGroup"></path>
            <path d="M97.5653307,16.3143433 L122.124422,177.726416 L209.104538,56.0805549 L97.5653307,16.3143433 L97.5653307,16.3143433 Z" id="Shape" stroke="#FF0000" stroke-linecap="round" stroke-linejoin="round" fill="url(#linearGradient-1)" sketch:type="MSShapeGroup"></path>
            <path d="M97.5653307,16.3143433 L0.352260093,149.888029 L122.124422,177.726416 L97.5653307,16.3143433 L97.5653307,16.3143433 Z" id="Shape" stroke="#FF0000" stroke-linecap="round" stroke-linejoin="round" fill="url(#linearGradient-1)" sketch:type="MSShapeGroup"></path>
            <path d="M209.104538,56.0805549 L303.247722,56.0805549 L414.786929,16.2664199 C309.06004,-5.42349949 205.152571,-3.64421642 97.5653307,16.3143433 L209.104538,56.0805549 Z" id="Shape" stroke="#FF0000" stroke-linecap="round" stroke-linejoin="round" fill="url(#linearGradient-2)" sketch:type="MSShapeGroup"></path>
            <path d="M127.2409,282.442068 L0.352260093,149.888029 L97.5653307,16.3143433 C209.121934,-3.57895905 318.847576,-3.10135152 405.852251,14.6884202 C279.986907,54.4546334 171.02055,141.198602 127.2409,282.442068 Z" id="Reflection" fill="url(#linearGradient-3)" sketch:type="MSShapeGroup"></path>
            <path d="M97.5653307,16.3143433 C229.225597,-4.70057015 290.924175,-5.80892584 414.786929,16.3143433 L512,149.888029 L256.17613,418.055046 L0.352260093,149.888029 L97.5653307,16.3143433 L97.5653307,16.3143433 Z" id="Outline" stroke="#D21B1B" stroke-width="2" stroke-linecap="round" stroke-linejoin="round" sketch:type="MSShapeGroup"></path>
        </g>
    </g>
</svg>