<?xml version="1.0" encoding="UTF-8" standalone="no"?>
<svg width="504px" height="414px" viewBox="0 0 504 414" version="1.1" xmlns="http://www.w3.org/2000/svg" xmlns:xlink="http://www.w3.org/1999/xlink" xmlns:sketch="http://www.bohemiancoding.com/sketch/ns">
    <!-- Generator: Sketch 3.3.3 (12072) - http://www.bohemiancoding.com/sketch -->
    <title>rubytaiwan</title>
    <desc>Created with Sketch.</desc>
    <defs>
        <linearGradient x1="12.5411336%" y1="41.0159542%" x2="83.0093503%" y2="74.4702399%" id="linearGradient-1">
            <stop stop-color="#9C0606" offset="0%"></stop>
            <stop stop-color="#AF0505" offset="39.7799745%"></stop>
            <stop stop-color="#D80202" offset="67.3250159%"></stop>
            <stop stop-color="#FF0000" offset="100%"></stop>
            <stop stop-color="#FF0000" offset="100%"></stop>
        </linearGradient>
        <linearGradient x1="62.7294242%" y1="100%" x2="62.7314392%" y2="0%" id="linearGradient-2">
            <stop stop-color="#FFFFFF" stop-opacity="0.298039" offset="0%"></stop>
            <stop stop-color="#FFFFFF" stop-opacity="0.435294" offset="28%"></stop>
            <stop stop-color="#FFFFFF" stop-opacity="0.498039" offset="50%"></stop>
            <stop stop-color="#FFFFFF" stop-opacity="0.498039" offset="50%"></stop>
            <stop stop-color="#FFFFFF" stop-opacity="0.74902" offset="100%"></stop>
        </linearGradient>
    </defs>
    <g id="Page-1" stroke="none" stroke-width="1" fill="none" fill-rule="evenodd" sketch:type="MSPage">
        <g id="rubytaiwan" sketch:type="MSLayerGroup" transform="translate(1.000000, 2.000000)">
            <path d="M96.417,15.906 C225.08,-4.704 285.764,-5.166 406.807,16.53 L501,147.362 L253.261,409.341 L1,147.658 L96.417,15.906 L96.417,15.906 Z" id="Background" fill="#FF0000" sketch:type="MSShapeGroup"></path>
            <path d="M501,147 L376,177.138 L251,410 L501,147 L501,147 Z" id="Shape" stroke="#FF0000" stroke-width="3" stroke-linecap="round" stroke-linejoin="round" fill="url(#linearGradient-1)" sketch:type="MSShapeGroup"></path>
            <path d="M376,177.138 L251,410 L251,201 L376,177.138 Z" id="Shape" stroke="#FF0000" stroke-width="3" stroke-linecap="round" stroke-linejoin="round" fill="url(#linearGradient-1)" sketch:type="MSShapeGroup"></path>
            <path d="M251,410 L251,201 L120,174.302 L251,410 L251,410 Z" id="Shape" stroke="#FF0000" stroke-width="3" stroke-linecap="round" stroke-linejoin="round" fill="url(#linearGradient-1)" sketch:type="MSShapeGroup"></path>
            <path d="M120,174.302 L251,410 L1,147 L120,174.302 Z" id="Shape" stroke="#FF0000" stroke-width="3" stroke-linecap="round" stroke-linejoin="round" fill="url(#linearGradient-1)" sketch:type="MSShapeGroup"></path>
            <path d="M376,177.138 L406,16 L501,147 L376,177.138 L376,177.138 Z" id="Shape" stroke="#FF0000" stroke-width="3" stroke-linecap="round" stroke-linejoin="round" fill="url(#linearGradient-1)" sketch:type="MSShapeGroup"></path>
            <path d="M376,177.138 L406,16 L297,55 L376,177.138 L376,177.138 Z" id="Shape" stroke="#FF0000" stroke-width="3" stroke-linecap="round" stroke-linejoin="round" fill="url(#linearGradient-1)" sketch:type="MSShapeGroup"></path>
            <path d="M376,177.138 L297,55 L251,201 L376,177.138 L376,177.138 Z" id="Shape" stroke="#FF0000" stroke-width="3" stroke-linecap="round" stroke-linejoin="round" fill="url(#linearGradient-1)" sketch:type="MSShapeGroup"></path>
            <path d="M297,55 L205,55 L251,201 L297,55 L297,55 Z" id="Shape" stroke="#FF0000" stroke-width="3" stroke-linecap="round" stroke-linejoin="round" fill="url(#linearGradient-1)" sketch:type="MSShapeGroup"></path>
            <path d="M205,55 L120,174.302 L251,201 L205,55 L205,55 Z" id="Shape" stroke="#FF0000" stroke-width="3" stroke-linecap="round" stroke-linejoin="round" fill="url(#linearGradient-1)" sketch:type="MSShapeGroup"></path>
            <path d="M96,16 L120,174.302 L205,55 L96,16 L96,16 Z" id="Shape" stroke="#FF0000" stroke-width="3" stroke-linecap="round" stroke-linejoin="round" fill="url(#linearGradient-1)" sketch:type="MSShapeGroup"></path>
            <path d="M96,16 L1,147 L120,174.302 L96,16 L96,16 Z" id="Shape" stroke="#FF0000" stroke-width="3" stroke-linecap="round" stroke-linejoin="round" fill="url(#linearGradient-1)" sketch:type="MSShapeGroup"></path>
            <path d="M205,55 L297,55 L406,15.953 C302.68,-5.319 201.138,-3.574 96,16 L205,55 Z" id="Shape" stroke="#FF0000" stroke-width="3" stroke-linecap="round" stroke-linejoin="round" fill="url(#linearGradient-1)" sketch:type="MSShapeGroup"></path>
            <path d="M125,277 L1,147 L96,16 C205.017,-3.51 310.976,-2.44699971 396,15.0000003 C273,54.0000018 167.783,138.478 125,277 Z" id="Reflection" fill="url(#linearGradient-2)" sketch:type="MSShapeGroup"></path>
            <path d="M96,16 C224.663,-4.61 284.957,-5.697 406,16 L501,147 L251,410 L1,147 L96,16 L96,16 Z" id="Outline" stroke="#D21B1B" stroke-width="4" stroke-linecap="round" stroke-linejoin="round" sketch:type="MSShapeGroup"></path>
        </g>
    </g>
</svg>